<?xml version="1.0" encoding="utf-8"?>
<!-- Generator: Adobe Illustrator 16.0.0, SVG Export Plug-In . SVG Version: 6.00 Build 0)  -->
<!DOCTYPE svg PUBLIC "-//W3C//DTD SVG 1.1 Tiny//EN" "http://www.w3.org/Graphics/SVG/1.1/DTD/svg11-tiny.dtd">
<svg version="1.1" baseProfile="tiny" id="Layer_1" xmlns="http://www.w3.org/2000/svg" xmlns:xlink="http://www.w3.org/1999/xlink"
	 x="0px" y="0px" width="680px" height="445px" viewBox="0 0 680 445" xml:space="preserve">
<g id="FOREGROUND">
	<g id="Layer_14">
		<g>
			<polyline fill="none" stroke="#2FA268" stroke-miterlimit="10" points="51.5,53 51.5,77.813 74.354,94.686 			"/>
			<circle fill="#2FA268" cx="52.587" cy="51.386" r="3.317"/>
			<polyline fill="none" stroke="#2FA268" stroke-miterlimit="10" points="98.5,64 98.5,89.425 75.988,119.547 			"/>
			<circle fill="#2FA268" cx="98.124" cy="62.998" r="3.317"/>
			<circle fill="#2FA268" cx="75.729" cy="10.746" r="4.147"/>
			<polyline fill="none" stroke="#2FA268" stroke-miterlimit="10" points="74.5,11 74.5,167.917 92.363,199.886 90.652,351.999 
				91.516,252.236 148.5,220.996 148.5,64 			"/>
			<polyline fill="none" stroke="#2FA268" stroke-miterlimit="10" points="125.5,107 125.5,130.895 149.434,148.226 			"/>
			<circle fill="#2FA268" cx="126.401" cy="104.467" r="3.318"/>
			<polyline fill="none" stroke="#2FA268" stroke-miterlimit="10" points="171.5,117 171.5,142.507 148.987,172.588 			"/>
			<circle fill="#2FA268" cx="171.938" cy="116.079" r="3.318"/>
			<circle fill="#2FA268" cx="149.546" cy="63.827" r="4.147"/>
		</g>
		<polyline fill="none" stroke="#2FA268" stroke-miterlimit="10" points="16.5,207 16.5,219.729 28.356,228.553 		"/>
		<circle fill="#2FA268" cx="17.324" cy="206.019" r="1.721"/>
		<polyline fill="none" stroke="#2FA268" stroke-miterlimit="10" points="40.5,213 40.5,225.752 28.821,241.598 		"/>
		<circle fill="#2FA268" cx="40.947" cy="212.043" r="1.721"/>
		<circle fill="#2FA268" cx="29.331" cy="184.936" r="2.151"/>
		<polyline fill="none" stroke="#2FA268" stroke-miterlimit="10" points="28.5,185 28.5,266.471 37.862,283.057 36.798,361.933 		
			"/>
		<path fill="#97DD76" d="M-45.03,450.96l12.104-65.356l22.453-34.826l24.889-21.996c0,0,16.328-21.997,17.486-27.495
			c1.159-5.5,38.277-36.201,38.277-36.201s22.913,35.284,27.495,36.659c4.583,1.374,38.035,10.54,43.534,12.372
			c5.5,1.834,15.123,4.582,18.789,9.624c3.666,5.041,15.123,22.454,18.33,26.12c3.208,3.666,13.29,13.289,19.247,13.289
			c5.956,0,16.038,14.521,18.787,15.279c2.749,0.76,60.948-12.071,60.948-12.071l13.289,12.071c0,0,15.581,7.175,17.414,7.634
			c1.833,0.458,41.242,10.538,46.742,11.454c5.498,0.917,29.785-9.544,29.785-9.544l36.66,14.893l34.828,7.506l16.955,36.639"/>
		<g>
			<polyline fill="none" stroke="#2FA268" stroke-miterlimit="10" points="390.5,283 390.5,301.934 407.59,314.359 			"/>
			<circle fill="#2FA268" cx="391.53" cy="282.173" r="2.481"/>
			<polyline fill="none" stroke="#2FA268" stroke-miterlimit="10" points="425.5,292 425.5,310.616 407.92,333.336 			"/>
			<circle fill="#2FA268" cx="426.329" cy="290.855" r="2.481"/>
			<circle fill="#2FA268" cx="408.837" cy="251.784" r="3.101"/>
			<line fill="none" stroke="#2FA268" stroke-miterlimit="10" x1="463.5" y1="409" x2="463.5" y2="292"/>
			<polyline fill="none" stroke="#2FA268" stroke-miterlimit="10" points="407.5,252 407.5,369.307 420.671,393.227 			"/>
			<polyline fill="none" stroke="#2FA268" stroke-miterlimit="10" points="445.5,324 445.5,341.624 463.396,354.705 			"/>
			<circle fill="#2FA268" cx="446.726" cy="321.863" r="2.481"/>
			<polyline fill="none" stroke="#2FA268" stroke-miterlimit="10" points="480.5,331 480.5,350.308 463.666,372.683 			"/>
			<circle fill="#2FA268" cx="480.775" cy="330.545" r="2.48"/>
			<circle fill="#2FA268" cx="464.031" cy="291.475" r="3.101"/>
		</g>
		<g>
			<polyline fill="none" stroke="#2FA268" stroke-miterlimit="10" points="337.5,349 337.5,359.143 346.415,365.492 			"/>
			<circle fill="#2FA268" cx="337.345" cy="348.833" r="1.294"/>
			<polyline fill="none" stroke="#2FA268" stroke-miterlimit="10" points="355.5,354 355.5,363.672 346.327,375.545 			"/>
			<circle fill="#2FA268" cx="355.5" cy="353.363" r="1.294"/>
			<circle fill="#2FA268" cx="346.373" cy="332.979" r="1.618"/>
			<line fill="none" stroke="#2FA268" stroke-miterlimit="10" x1="375.5" y1="415" x2="375.5" y2="354"/>
			<polyline fill="none" stroke="#2FA268" stroke-miterlimit="10" points="346.5,333 346.5,394.292 353.371,406.725 			"/>
			<polyline fill="none" stroke="#2FA268" stroke-miterlimit="10" points="366.5,371 366.5,379.85 375.837,386.847 			"/>
			<circle fill="#2FA268" cx="366.14" cy="369.54" r="1.294"/>
			<polyline fill="none" stroke="#2FA268" stroke-miterlimit="10" points="384.5,374 384.5,384.38 375.718,395.899 			"/>
			<circle fill="#2FA268" cx="384.904" cy="374.069" r="1.294"/>
			<circle fill="#2FA268" cx="375.169" cy="354.686" r="1.618"/>
		</g>
		<line fill="none" stroke="#2FA268" stroke-miterlimit="10" x1="631.5" y1="293" x2="631.5" y2="419"/>
		<polyline fill="none" stroke="#2FA268" stroke-miterlimit="10" points="631.5,295 631.5,189.25 641.5,179.47 641.5,119 		"/>
		<polyline fill="none" stroke="#2FA268" stroke-miterlimit="10" points="640.782,152.681 629.5,141.574 629.5,93 		"/>
		<path fill="none" stroke="#2FA268" stroke-miterlimit="10" d="M643.813,173.236"/>
		<polyline fill="none" stroke="#2FA268" stroke-miterlimit="10" points="641.075,163.52 658.5,147.079 658.5,121 		"/>
		<polyline fill="none" stroke="#2FA268" stroke-miterlimit="10" points="631.166,244.749 595.5,208.904 595.5,119 		"/>
		<polyline fill="none" stroke="#2FA268" stroke-miterlimit="10" points="594.765,190.888 578.5,170.085 578.5,149 		"/>
		<polyline fill="none" stroke="#2FA268" stroke-miterlimit="10" points="631.809,313.527 615.5,331.041 615.5,387 		"/>
		<polyline fill="none" stroke="#2FA268" stroke-miterlimit="10" points="634.023,370.303 659.5,392.607 659.5,442 		"/>
		<circle fill="#2FA268" cx="629.509" cy="94.302" r="4.045"/>
		<circle fill="#2FA268" cx="595.481" cy="119.506" r="4.045"/>
		<circle fill="#2FA268" cx="580.013" cy="150.064" r="4.046"/>
		<circle fill="#2FA268" cx="615.951" cy="403.223" r="4.045"/>
		<circle fill="#2FA268" cx="641.156" cy="117.594" r="4.045"/>
		<circle fill="#2FA268" cx="658.148" cy="117.594" r="4.045"/>
	</g>
	<g id="Layer_15">
		<polygon fill="#C2EFD9" points="65.268,269 54.12,283.811 49.342,297.586 114.635,311.376 129.124,330.479 122.753,299.688 
			89.232,293.314 78.007,275.318 71.638,269 		"/>
		<path fill="#C2EFD9" d="M71.068,450.588l-4.777-19.784c0,0,8.494-8.35,9.555-11.535c1.063-3.185,4.575-12.158,2.022-14.838
			c-2.554-2.679-13.071-20.416-16.163-29.596c-3.092-9.181-9.706-21.921-9.706-21.921v-5.838c0,0,1.307,0,0.245-11.68
			c-1.063-11.679,0.123-19.642,0.123-19.642s-8.434-2.653,1.652,0c10.086,2.654,13.802,3.716,13.802,3.716
			s-0.015,11.68,0.016,15.926s4.285,7.765,6.938,8.395c2.654,0.631,6.451-2.555,6.451-2.555s6.294,5.309,10.01,6.37
			c3.717,1.061,0.001,0.53,12.741-1.063s11.458-11.878,17.143-2.754c5.684,9.123,8.339,18.679,8.339,21.333
			s14.862,9.737,18.048,13.362c3.185,3.624,9.024,7.34,14.333,11.056c5.308,3.716,15.925,17.539,18.579,22.306
			c2.654,4.768,6.9,10.431,6.9,10.431l33.44,28.598L71.068,450.588"/>
		<path fill="#C2EFD9" d="M204.086,350h-18.579c0,0-8.494-2.141-13.802,2.637c-5.309,4.778-8.044,5.3-8.044,5.3
			S145,351.148,145,349.495s0-17.578,0-17.578l-10.004-4.776l6.411,30.787l22.847,23.889l26.021-10.086
			c0,0,14.869,6.369,17.523,10.086c2.654,3.716,12.743,12.209,13.272,13.271c0.531,1.063,31.852-5.656,31.852-5.656l-17.361-16.073
			l-19.798-10.238L204.086,350z"/>
		<polygon fill="#C2EFD9" points="31.989,320.917 14.036,336.784 7.363,342.682 -1.059,352.939 -8.661,364.73 8.468,367.1 
			24.924,354.791 18.554,344.008 		"/>
		<path fill="#C2EFD9" d="M526,340.564v17.674c0,0,7.577,4.608-0.106,6.915c-7.685,2.306-40.894,7.684-40.894,7.684v4.61
			c0,0,9.294,2.231,0.027,8.837c-9.265,6.604-11.771,8.104-11.771,8.104l63.389-14.636l30.539-4.738l18.814-13.569l-36.994-10.892
			L526,340.564z"/>
		<path fill="#4B775F" d="M342.309,450.226l22.922-36.319l45.844-31.014l29.664-6.517c0,0,33.034-1.349,37.08-4.045
			c4.045-2.696,23.201-16.181,26.434-22.248c3.231-6.067,38.962-9.438,43.007-9.438c4.046,0,25.619-26.42,25.619-26.42
			s16.181,5.521,17.527,7.543c1.35,2.022,4.045,28.315,4.045,28.315l28.091,13.591l35.084,1.915c0,0-5.869,20.227-3.173,22.248
			c2.697,2.022,72.138,57.305,72.138,57.305L342.309,450.226L342.309,450.226c0,0-319.56,0.927-318.211,0.955
			c1.349,0.029,101.126-29.635,101.126-29.635s82.705-21.574,83.598-23.26c0.895-1.686,22.922-32.697,22.922-32.697l19.552,6.742
			l31.687-4.704c0,0,19.551-3.354,20.899,0c1.349,3.355,19.551,4.704,20.898,8.749c1.349,4.045,13.879,14.221,14.019,14.863
			s66.569,18.846,66.569,18.846l27.961,38.937l-409.231,2.159l-66.349-0.225l7.021-58.189c0,0,10.112-15.042,12.81-16.391
			c2.696-1.349,26.783-4.045,26.783-4.045l26.478-12.81l24.271,14.72l58.525-8.652L342.309,450.226"/>
	</g>
	<g id="Layer_13">
		<path fill="#2FA268" d="M636.481,336.454l-50.413,33.83l-6.634,9.286c0,0-17.246,5.307-20.563,0
			c-3.315-5.308-12.603-12.604-12.603-12.604s-51.74,9.95-53.729,11.277c-1.988,1.326-32.503,11.938-38.473,13.93
			c-5.971,1.99-28.523,4.644-38.473,3.316c-9.951-1.326-54.395-9.287-54.395-9.287l-7.96-12.604l-19.235,15.919l-17.247-0.661
			L301.5,377.579l-34.492,0.664l-29.188,9.949l-35.819-5.971l-29.187-29.186c0,0,1.99-4.645,0-6.634
			c-1.99-1.991-29.85,3.314-29.85,3.314s-1.99,0.664-6.634,7.961s-29.836,20.979-31.833,24.751
			c-1.997,3.772-32.51,0.455-35.163,0.455c-2.654,0-22.878-1.432-22.653-1.538c0.225-0.104-19.8-20.351-19.8-20.351
			s-7.04,3.358-14.439,6.936c-7.668,3.707-15.724,7.646-16.736,8.32c-1.99,1.326-23.217,25.869-25.207,28.523
			c-1.99,2.651-15.531,46.183-15.531,46.183l717.331-5.721l11.939-37.811l-32.503-5.431L636.481,336.454z"/>
		<polygon fill="#76FFCE" points="361.091,386.229 401.166,410.822 421.094,407.164 425.006,417 450.087,417 432.61,395.543 		"/>
		<path fill="#76FFCE" d="M3.668,383.108c0,0,0.441,9.7,0,10.6c-0.442,0.897-7.519,8.291-7.519,8.291l21.669,4.989l9.729-19.458
			l13.473-12.152l-14.136-14.38L3.668,383.108z"/>
		<polygon fill="#76FFCE" points="141,351.048 141,372.938 155.359,367.853 169.396,361.992 163.754,352.374 169.391,345.306 
			142.979,349.058 		"/>
		<polygon fill="#76FFCE" points="202.002,382.224 237.821,388.193 267.009,378.244 301.502,377.58 293.763,388.193 
			283.148,392.205 276.957,399.139 269.44,404.777 254.848,406.988 241.58,397.26 219.471,395.933 		"/>
		<polygon fill="#76FFCA" points="492.539,377.58 546.27,366.304 556.888,376.25 547.928,388.525 533.997,393.044 529.687,403.119 
			539.968,410.083 505.807,398.475 476.439,383.71 		"/>
		<path fill="#76FFCA" d="M636.481,336.454l-11.498,22.332l-15.92,25.207l20.784-2.654c0,0-3.538,9.509-4.864,10.945
			c-1.327,1.438-13.267,22.222-13.267,22.222l15.921-3.759l24.1-8.748L636.481,336.454z"/>
	</g>
	<polygon fill="#2FA268" points="186.083,210.177 220.467,229.678 224.059,249.18 239.967,239.941 283.225,244.561 253.822,267.141 
		226.11,264.975 223.031,260.742 221.491,416 218.414,416 219.952,260.742 189.971,236.752 198.398,235.904 	"/>
	<polygon fill="#77BFA7" points="195.07,215.273 220.467,229.678 223.202,253.111 	"/>
	<polygon fill="#77BFA7" points="223.031,260.471 281.385,244.364 252.207,258.245 	"/>
</g>
<g id="fore">
	<path fill="#5BDD99" d="M-45.03,450.96l60.363-36.481l26.808-30.928c0,0,15.919-7.96,17.91-7.297s11.276-3.979,13.267-4.644
		c1.99-0.663,11.276-18.572,11.276-18.572s5.97,3.316,7.297,6.633s3.316,15.256,5.306,17.909c1.99,2.653,1.99,6.634,13.268,3.979
		c11.277-2.653,9.95-6.634,17.91-5.97c7.959,0.663,9.95,5.307,17.247,11.276c7.296,5.97,4.643,5.307,12.603,9.287
		c7.96,3.979,20.563,0,25.207-1.99c4.643-1.99,24.543,4.975,24.543,4.975l24.543,12.936c0,0,3.315,6.634,5.97,6.634
		s31.176-7.96,34.493-7.297s36.483-15.92,36.483-15.92l16.583,21.227l63.679-1.99l11.939,6.635c0,0,4.643,7.297,6.634,7.297
		c1.988,0,41.789-31.177,44.441-29.52c2.653,1.658,27.197,2.322,35.156,6.965c7.961,4.645,25.869,6.634,28.523,10.613
		c2.651,3.979-5.971,2.653,3.315,9.286c9.286,6.634,11.939,7.297,21.228,11.276c9.285,3.98,26.532-3.979,26.532-3.979l36.482,6.633
		l19.9-12.603l19.898-11.939l13.268,7.96l11.275,21.89L-45.03,450.96z"/>
	<polygon fill="#07724C" points="83.21,354.334 73.316,370.284 42.141,382.224 36.834,418.707 60.021,409.42 75.307,392.381 
		89.236,384.214 95.832,373.164 91.891,358.344 84.594,351.71 	"/>
	<polygon fill="#07724C" points="108.626,382.548 115,391.718 115,400.133 112.731,404.777 125.858,400.009 138.393,411.244 
		147.609,401 159.55,401 172.815,400.441 186.083,393.924 165.52,397.588 153.667,391.771 145.62,384.905 137.695,377.844 
		128.374,374 125.057,374 	"/>
	<polygon fill="#175635" points="169.389,451.182 202.61,439.38 214.136,427.828 230.953,433.105 261.352,434.42 286,427.772 
		286,422.688 305.138,410.809 326.867,420.696 352.988,418.707 389.709,414.727 401.656,421.36 408.293,428.657 449.422,399.139 
		469.321,416.388 476.398,428 492.539,428 511.334,441.042 544.5,445.242 552.902,448.115 	"/>
</g>
<g id="seeds">
	<polyline fill="none" stroke="#2FA268" stroke-width="2" stroke-miterlimit="10" points="195,288 195,314.279 221.021,332.971 	"/>
	<circle fill="#2FA268" cx="195.782" cy="285.547" r="3.607"/>
	<polyline fill="none" stroke="#2FA268" stroke-width="2" stroke-miterlimit="10" points="246,328 246,354.855 221.524,387.998 	"/>
	<circle fill="#2FA268" cx="245.289" cy="326.125" r="3.607"/>
</g>
</svg>
