<?xml version="1.0" encoding="utf-8"?>
<!-- Generator: Adobe Illustrator 16.0.0, SVG Export Plug-In . SVG Version: 6.00 Build 0)  -->
<!DOCTYPE svg PUBLIC "-//W3C//DTD SVG 1.1 Tiny//EN" "http://www.w3.org/Graphics/SVG/1.1/DTD/svg11-tiny.dtd">
<svg version="1.1" baseProfile="tiny" id="Layer_1" xmlns="http://www.w3.org/2000/svg" xmlns:xlink="http://www.w3.org/1999/xlink"
	 x="0px" y="0px" width="110px" height="230px" viewBox="0 0 110 230" xml:space="preserve">
<polygon fill="#2FA268" points="1.744,1.913 39.875,23.54 43.859,45.167 61.502,34.923 109.476,40.044 76.868,65.086 46.136,62.683 
	42.721,57.903 41.013,230 37.599,230 39.306,57.903 6.056,31.342 15.403,30.423 "/>
<polygon fill="#48F99C" points="8.5,5.745 39.875,23.54 44.911,50.528 "/>
<polygon fill="#48F99C" points="42.721,57.688 107.436,39.826 75.078,55.221 "/>
<polyline fill="none" stroke="#2FA268" stroke-width="2" stroke-miterlimit="10" points="12,88 12,117.362 40.857,137.982 "/>
<circle fill="#2FA268" cx="12.5" cy="85.5" r="4"/>
<polyline fill="none" stroke="#2FA268" stroke-width="2" stroke-miterlimit="10" points="68,133 68,162.362 40.857,199.327 "/>
<circle fill="#2FA268" cx="67.404" cy="130.5" r="4"/>
</svg>
