<?xml version="1.0" encoding="utf-8"?>
<!-- Generator: Adobe Illustrator 16.0.0, SVG Export Plug-In . SVG Version: 6.00 Build 0)  -->
<!DOCTYPE svg PUBLIC "-//W3C//DTD SVG 1.1 Tiny//EN" "http://www.w3.org/Graphics/SVG/1.1/DTD/svg11-tiny.dtd">
<svg version="1.1" baseProfile="tiny" id="Layer_1" xmlns="http://www.w3.org/2000/svg" xmlns:xlink="http://www.w3.org/1999/xlink"
	 x="0px" y="0px" width="571px" height="79px" viewBox="0 0 571 79" xml:space="preserve">
<g id="Layer_1_1_">
	<g>
		<g display="none">
			<path id="path2995_1_" display="inline" fill="#2FA268" d="M457.104,53.451c-7.381-2.633-11.021-7.633-12.154-16.687
				c-1.479-11.859,4.378-22.329,13.828-24.709c5.99-1.508,8.293-1.448,14.423,0.372l5.114,1.519l-1.556,4.565
				c-1.354,3.969-1.834,4.473-3.685,3.854c-1.17-0.392-4.151-0.916-6.629-1.163c-6.207-0.622-9.146,2.438-9.789,10.194
				c-0.529,6.395,0.94,10.721,4.245,12.489c2.302,1.23,8.808,1.001,13.295-0.471c2.134-0.7,2.25-0.479,2.25,4.295v5.034
				l-5.049,1.083C464.898,55.22,461.843,55.141,457.104,53.451L457.104,53.451z M325.447,32.41v-21.5h5.5h5.5v8v8h7h7v-8v-8h5.5h5.5
				v21.5v21.5h-5.5h-5.5v-8.5v-8.5h-7h-7v8.5v8.5h-5.5h-5.5V32.41z M382.777,53.16c0.247-0.413,3.454-10.105,7.127-21.541
				l6.681-20.791l7.599,0.291l7.6,0.291l6.833,20.48c3.759,11.265,6.833,20.827,6.833,21.25c0,0.422-2.683,0.77-5.961,0.77h-5.962
				l-1.077-4l-1.077-4h-7.333h-7.334l-0.64,4l-0.64,4h-6.547C385.275,53.91,382.531,53.572,382.777,53.16L382.777,53.16z
				 M407.938,31.66c-0.765-2.339-1.928-6.275-2.586-8.75l-1.195-4.5l-1.691,6.5c-0.934,3.573-2.021,7.512-2.422,8.75
				c-0.688,2.13-0.464,2.25,4.277,2.25h5.007L407.938,31.66z M539.538,34.839c-6.159-0.084-11.452,0.1-11.763,0.408
				c-0.309,0.308,1.577,4.296,4.189,8.86c2.611,4.564,4.94,8.639,5.176,9.052c0.232,0.411-2.414,0.749-5.884,0.749l-6.312-0.002
				l-4.315-7.998c-2.375-4.399-4.479-7.999-4.669-7.999c-2.854,0-3.516,1.616-3.516,8.604v7.396h-5.5h-5.5v-21.5l0,0v-21.5h5.463
				h5.464l0.286,9.202l0.287,9.204l6.083-8.954l6.082-8.952l6.287-0.302l6.286-0.302l-5.642,8.052l-5.644,8.052h11.979"/>
		</g>
		<path id="path2995" fill="#2FA268" d="M273.697,66.247c-0.701-0.282-1.25-2.224-1.25-4.421c0-3.794,0.107-3.916,3.43-3.916
			c6.404,0,6.57-0.639,6.57-25.072V10.91h5.5h5.5v22.852c0,22.093-0.075,22.964-2.27,26.25
			C287.569,65.413,279.109,68.43,273.697,66.247z M450.104,53.451c-7.381-2.633-11.021-7.633-12.154-16.687
			c-1.479-11.859,4.378-22.329,13.828-24.709c5.99-1.508,8.293-1.448,14.423,0.372l5.114,1.519l-1.556,4.565
			c-1.354,3.969-1.834,4.473-3.685,3.854c-1.17-0.392-4.151-0.916-6.629-1.163c-6.207-0.622-9.146,2.438-9.789,10.194
			c-0.529,6.395,0.94,10.721,4.245,12.489c2.302,1.23,8.808,1.001,13.295-0.471c2.134-0.7,2.25-0.479,2.25,4.295v5.034l-5.049,1.083
			C457.898,55.22,454.843,55.141,450.104,53.451L450.104,53.451z M55.449,43.91v-10H43.331c-12.039,0-12.142,0.02-15.535,3
			c-3.834,3.365-6.107,3.691-10.372,1.486c-7.345-3.798-4.235-16.486,4.039-16.486c2.6,0,7.986,2.715,7.986,4.024
			c0,0.582,5.229,0.976,13,0.976h13v-8v-8h12.5h12.5v4.5v4.5h-7h-7v3.5v3.5h6.5h6.5v4.5v4.5h-6.5h-6.5v4v4h7h7v5v5h-12.5h-12.5
			V43.91z M103.449,32.41v-21.5h7.433c6.214,0,7.519,0.285,7.953,1.75c0.287,0.962,2.16,7.375,4.164,14.25s3.966,12.844,4.36,13.264
			c0.396,0.422,1.953-3.629,3.462-9c1.51-5.37,3.426-12.127,4.257-15.014l1.512-5.25h7.43h7.43v21.5v21.5h-5h-5l-0.075-15.25
			L141.3,23.41l-4.282,15l-4.283,15l-5.394,0.29l-5.393,0.29l-4.399-15.54c-2.42-8.548-4.521-15.54-4.666-15.54
			c-0.146,0-0.01,6.975,0.302,15.5l0.565,15.5h-5.15h-5.149L103.449,32.41L103.449,32.41z M177.448,32.41v-21.5h12.5h12.5v4.5v4.5
			h-7h-7v3.5v3.5h6.5h6.5v4.5v4.5h-6.5h-6.5v4v4h7h7v5v5h-12.5h-12.5V32.41z M225.448,32.41v-21.5l8.25,0.022
			c14.253,0.041,20.477,2.622,22.143,9.186c1.198,4.72,0.12,8.433-3.501,12.054l-3.008,3.007l4.387,6.615
			c2.411,3.64,5.188,7.854,6.174,9.366l1.787,2.75l-6.365-0.002l-6.365-0.003l-4.5-7.976c-6.143-10.885-8-10.89-8-0.021v8h-5.5h-5.5
			L225.448,32.41L225.448,32.41z M243.877,27.337c3.178-3.176,0.602-7.428-4.5-7.428c-2.805,0-2.93,0.189-2.93,4.5
			c0,4.309,0.125,4.5,2.93,4.5C240.986,28.91,243.013,28.202,243.877,27.337z M318.447,32.41v-21.5h5.5h5.5v8v8h7h7v-8v-8h5.5h5.5
			v21.5v21.5h-5.5h-5.5v-8.5v-8.5h-7h-7v8.5v8.5h-5.5h-5.5V32.41z M375.777,53.16c0.247-0.413,3.454-10.105,7.127-21.541
			l6.681-20.791l7.599,0.291l7.6,0.291l6.833,20.48c3.759,11.265,6.833,20.827,6.833,21.25c0,0.422-2.683,0.77-5.961,0.77h-5.962
			l-1.077-4l-1.077-4h-7.333h-7.334l-0.64,4l-0.64,4h-6.547C378.275,53.91,375.531,53.572,375.777,53.16L375.777,53.16z
			 M400.938,31.66c-0.765-2.339-1.928-6.275-2.586-8.75l-1.195-4.5l-1.691,6.5c-0.934,3.573-2.021,7.512-2.422,8.75
			c-0.688,2.13-0.464,2.25,4.277,2.25h5.007L400.938,31.66z M494.447,32.41v-21.5h5.463h5.462l0.288,9.202l0.287,9.204l6.083-8.954
			l6.082-8.952l6.287-0.302l6.286-0.302l-5.643,8.052L519.4,26.91h11.979c11.439,0,12.088-0.112,14.477-2.5
			c2.931-2.933,8.863-3.398,12.328-0.973c4.337,3.037,3.475,13.025-1.282,14.851c-3.181,1.221-8.227,0.589-10.675-1.337
			c-2.104-1.653-4.23-1.981-13.689-2.111c-6.159-0.084-11.452,0.1-11.763,0.408c-0.309,0.308,1.577,4.296,4.189,8.859
			c2.611,4.565,4.94,8.64,5.176,9.053c0.231,0.411-2.414,0.749-5.884,0.749l-6.312-0.001l-4.315-7.999
			c-2.375-4.399-4.479-7.999-4.669-7.999c-2.854,0-3.516,1.616-3.516,8.605v7.395h-5.5h-5.5L494.447,32.41L494.447,32.41z"/>
	</g>
</g>
<g id="Layer_2" display="none">
</g>
</svg>
