<?xml version="1.0" encoding="utf-8"?>
<!-- Generator: Adobe Illustrator 16.0.0, SVG Export Plug-In . SVG Version: 6.00 Build 0)  -->
<!DOCTYPE svg PUBLIC "-//W3C//DTD SVG 1.1 Tiny//EN" "http://www.w3.org/Graphics/SVG/1.1/DTD/svg11-tiny.dtd">
<svg version="1.1" baseProfile="tiny" id="Layer_1" xmlns="http://www.w3.org/2000/svg" xmlns:xlink="http://www.w3.org/1999/xlink"
	 x="0px" y="0px" width="720px" height="173px" viewBox="0 0 720 173" xml:space="preserve">
<g>
	<path fill-rule="evenodd" fill="#2FA267" d="M193.304,91.686c0.493-6.139,0.903-11.673,1.389-17.2
		c0.624-7.11,1.313-14.215,1.967-21.322c0.875-9.514,1.747-19.028,2.614-28.542c0.56-6.145,1.099-12.292,1.669-18.436
		c0.299-3.226,0.321-3.27,3.414-3.295c4.846-0.04,9.697,0.098,14.538-0.057c2.363-0.075,3.436,0.916,4.235,3.023
		c5.493,14.489,11.079,28.941,16.661,43.396c0.626,1.622,1.41,3.183,2.12,4.772c0.288-0.001,0.576-0.003,0.864-0.004
		c0.586-1.257,1.248-2.484,1.746-3.775c5.576-14.457,11.122-28.925,16.685-43.386c1.527-3.971,1.538-3.973,5.702-3.98
		c4.362-0.007,8.724-0.025,13.086,0.007c3.185,0.024,3.46,0.212,3.88,3.439c0.406,3.116,0.608,6.258,0.891,9.391
		c1.205,13.373,2.41,26.746,3.609,40.119c0.972,10.843,1.949,21.685,2.89,32.53c0.08,0.924-0.104,1.869-0.188,3.14
		c-1.744,0.07-3.278,0.174-4.813,0.185c-3.635,0.026-7.271,0.044-10.905-0.006c-2.782-0.037-2.914-0.135-3.187-2.775
		c-0.484-4.691-0.933-9.389-1.299-14.091c-0.832-10.737-1.588-21.478-2.423-32.214c-0.1-1.284-0.488-2.546-0.738-3.794
		c-2.008,0.09-2.005,1.586-2.378,2.608c-1.706,4.66-3.31,9.355-4.944,14.04c-3.71,10.628-7.415,21.258-11.126,31.886
		c-1.271,3.637-1.276,3.639-5.102,3.66c-1.576,0.008-3.156-0.086-4.725,0.02c-2.01,0.136-3.068-0.689-3.707-2.627
		c-1.778-5.402-3.736-10.746-5.614-16.117c-3.556-10.169-7.098-20.343-10.669-30.506c-0.38-1.081-0.919-2.105-1.659-3.776
		c-0.667,1.228-1.197,1.773-1.247,2.361c-0.561,6.508-1.023,13.025-1.559,19.536c-0.605,7.353-1.277,14.7-1.88,22.053
		c-0.188,2.293-0.181,4.602-0.385,6.893c-0.136,1.529-0.645,2.859-2.6,2.853C204.688,91.674,199.259,91.686,193.304,91.686z"/>
	<path fill-rule="evenodd" fill="#2FA267" d="M99.658,19.723c0,6.52,0,12.387,0,18.659c1.946,0.181,3.711,0.472,5.479,0.487
		c6.664,0.058,13.328,0.002,19.991,0.036c3.882,0.02,4.029,0.203,4.051,4.163c0.016,2.907,0.025,5.816-0.002,8.723
		c-0.033,3.493-0.124,3.596-3.754,3.609c-6.785,0.024-13.57,0.006-20.355,0.009c-0.97,0-1.943-0.039-2.906,0.039
		c-2.304,0.183-2.688,0.506-2.732,2.911c-0.081,4.36-0.072,8.723-0.014,13.085c0.042,3.139,0.305,3.377,3.697,3.397
		c7.027,0.04,14.055-0.007,21.082,0.021c5.974,0.026,6.031-0.838,5.988,5.831c-0.018,2.666,0.051,5.333-0.032,7.997
		c-0.082,2.626-0.393,2.943-2.969,2.988c-3.755,0.065-7.512,0.02-11.268,0.02c-10.299,0-20.598,0-30.896,0
		c-0.849,0-1.696-0.019-2.544-0.014c-1.518,0.01-2.196-0.786-2.202-2.252c-0.006-1.697-0.027-3.393-0.028-5.089
		c-0.003-8.724,0.018-17.448-0.021-26.171c-0.007-1.528-0.259-3.055-0.42-4.827c-1.518-0.071-2.704-0.173-3.889-0.174
		c-14.54-0.01-29.079,0.027-43.619-0.042c-2.329-0.011-4.016,0.562-5.665,2.4c-4.246,4.732-10.403,5.654-15.882,2.774
		c-5.131-2.698-7.851-8.659-6.607-14.489c1.167-5.474,6.376-10.064,12.221-10.265c4.599-0.157,8.672,1.581,11.237,5.531
		c1.543,2.378,3.37,3.007,6.02,2.989c13.933-0.094,27.867-0.043,41.8-0.044c0.485,0,0.971,0.012,1.454-0.015
		c2.828-0.157,3.227-0.571,3.355-3.528c0.037-0.847,0.014-1.697,0.014-2.544c0.001-9.33,0-18.659,0.001-27.989
		c0.001-0.969,0.024-1.938,0.034-2.907c0.015-1.521,0.831-2.176,2.297-2.151c0.605,0.01,1.211-0.014,1.817-0.014
		c13.813,0,27.625-0.001,41.438,0c0.727,0.001,1.454,0.009,2.181,0.025c1.298,0.03,2.083,0.685,2.095,1.993
		c0.037,4.239,0.053,8.479,0.004,12.719c-0.024,2.075-1.566,2.111-3.1,2.109c-6.421-0.009-12.843-0.002-19.265-0.001
		C105.219,19.723,102.696,19.723,99.658,19.723z"/>
	<path fill-rule="evenodd" fill="#2FA267" d="M515.224,54.868c9.917,12.533,20.125,24.12,30.08,36.479
		c-1.082,0.147-1.83,0.337-2.58,0.34c-6.056,0.024-12.116-0.116-18.167,0.075c-2.5,0.08-4.009-0.865-5.453-2.756
		c-7.571-9.914-15.24-19.753-22.886-29.609c-0.716-0.921-1.518-1.776-2.361-2.757c-1.545,1.253-1.097,2.67-1.104,3.894
		c-0.039,8.722-0.021,17.443-0.021,26.165c0,0.726,0.024,1.454-0.011,2.18c-0.118,2.458-0.334,2.763-2.722,2.797
		c-4.602,0.065-9.205-0.019-13.809,0.034c-1.863,0.021-2.67-0.806-2.603-2.621c0.026-0.725-0.01-1.453-0.01-2.18
		c0-26.407-0.003-52.813,0.002-79.219c0-4.801,0.012-4.808,4.771-4.81c9.326-0.004,18.654-0.065,27.98,0.028
		c5.776,0.057,11.277,1.355,16.253,4.438c6.782,4.201,10.428,10.352,10.857,18.259c0.184,3.355,0.114,6.813-0.486,10.106
		c-1.474,8.073-6.331,13.688-13.642,17.252C518.155,53.528,516.979,54.052,515.224,54.868z M492.792,18.252
		c0,7.763-0.018,15.123,0.013,22.481c0.008,1.546,1.104,2.142,2.448,2.033c3.479-0.283,7.018-0.381,10.406-1.125
		c4.534-0.993,6.759-4.41,7.523-8.807c0.771-4.434,0.09-8.763-3.503-11.591C504.836,17.433,499.005,17.527,492.792,18.252z"/>
	<path fill-rule="evenodd" fill="#2FA267" d="M375.213,19.723c0,6.518,0,12.384,0,18.665c1.788,0.178,3.426,0.47,5.064,0.483
		c6.78,0.055,13.561,0.002,20.341,0.035c3.944,0.019,4.092,0.193,4.115,4.094c0.018,3.148,0.047,6.297-0.013,9.444
		c-0.052,2.652-0.284,2.921-2.941,2.941c-6.9,0.054-13.802,0.02-20.704,0.024c-1.089,0-2.183-0.043-3.269,0.034
		c-2.434,0.172-2.791,0.511-2.832,3.182c-0.066,4.358-0.07,8.719,0.001,13.076c0.046,2.77,0.375,3.104,3.216,3.126
		c7.265,0.058,14.529,0.024,21.795,0.028c0.968,0,1.939-0.038,2.905,0.014c2.375,0.126,2.743,0.405,2.804,2.783
		c0.093,3.63,0.084,7.265,0.013,10.896c-0.056,2.813-0.362,3.121-3.19,3.133c-9.323,0.04-18.646,0.017-27.97,0.017
		c-5.206,0-10.413,0.033-15.619-0.016c-2.822-0.027-3.1-0.283-3.113-3.16c-0.046-9.08-0.021-18.162-0.021-27.243
		c-0.001-17.678-0.001-35.355,0.001-53.034c0-1.089,0.018-2.179,0.039-3.268c0.026-1.299,0.659-2.032,1.993-2.071
		c0.725-0.022,1.452-0.027,2.179-0.027c13.803-0.002,27.605-0.002,41.409,0c0.727,0,1.453,0.006,2.179,0.027
		c1.306,0.038,2.056,0.723,2.066,2.021c0.032,4.237,0.053,8.475-0.002,12.71c-0.027,2.08-1.594,2.088-3.115,2.086
		c-6.659-0.006-13.319-0.001-19.979,0C380.285,19.723,378.006,19.723,375.213,19.723z"/>
	<path fill-rule="evenodd" fill="#2FA267" d="M601.992,69.536c1.692,1.144,2.852,1.981,4.063,2.736
		c2.945,1.836,6.063,3.078,9.628,2.359c4.674-0.944,7.825-4.333,8.432-9.266c0.324-2.637,0.48-5.311,0.488-7.968
		c0.043-16.234,0.021-32.468,0.021-48.703c0-0.969-0.037-1.941,0.022-2.907c0.158-2.537,0.438-2.847,3.095-2.89
		c3.875-0.062,7.752-0.033,11.629-0.016c3.988,0.018,4.136,0.134,4.146,4.045c0.028,9.692,0.008,19.384,0.015,29.077
		c0,1.089,0.036,2.18,0.079,3.269c0.067,1.723,0.901,2.701,2.7,2.715c0.848,0.007,1.695,0.038,2.545,0.039
		c12.356,0.002,24.716-0.07,37.071,0.055c2.914,0.03,4.857-0.686,6.645-3.235c3.428-4.89,9.375-6.421,14.861-4.45
		c5.552,1.995,8.846,7.129,8.567,13.358c-0.239,5.393-3.978,10.141-9.437,11.582c-5.069,1.337-9.708,0.33-13.205-3.752
		c-1.594-1.859-3.279-2.476-5.639-2.46c-13.205,0.084-26.411,0.04-39.616,0.04c-1.193,0-2.386,0-3.997,0
		c-0.214,1.78-0.513,3.276-0.555,4.779c-0.118,4.359,0.014,8.728-0.219,13.079c-0.578,10.825-6.861,18.43-17.361,21.024
		c-9.487,2.345-18.497,1.412-26.696-4.35c-3.405-2.394-3.42-2.381-1.957-6.159C598.8,77.716,600.293,73.897,601.992,69.536z"/>
	<path fill-rule="evenodd" fill="#2FA267" d="M583.647,159.471c1.649-1.763,0.958-3.508,0.938-5.095
		c-0.058-4.598-0.27-9.193-0.276-13.791c-0.002-0.972,0.451-2.677,0.954-2.78c1.581-0.324,3.3-0.148,4.929,0.089
		c0.317,0.046,0.665,1.23,0.668,1.892c0.045,8.841,0.02,17.684,0.042,26.524c0.004,1.644-0.675,2.333-2.362,2.479
		c-7.638,0.66-7.728,0.646-11.197-6.112c-2.158-4.2-4.31-8.404-6.502-12.586c-0.604-1.152-1.346-2.232-2.078-3.435
		c-1.649,0.983-1.104,2.317-1.107,3.406c-0.018,5.086,0.087,10.173,0.07,15.26c-0.009,3.127-2.122,4.495-4.981,3.254
		c-0.472-0.204-0.895-0.787-1.09-1.291c-0.21-0.539-0.159-1.191-0.159-1.795c-0.009-8.236-0.035-16.472,0.01-24.708
		c0.018-3.114,0.26-3.38,3.312-3.351c8.329,0.081,6.231-1.099,9.904,5.731c2.408,4.478,4.725,9.006,7.114,13.494
		C582.317,157.565,582.947,158.395,583.647,159.471z"/>
	<path fill-rule="evenodd" fill="#2FA267" d="M445.744,152.29c0.149-1.498,0.095-3.484,0.574-5.335
		c1.998-7.722,7.996-10.288,15.548-10.193c1.435,0.018,2.895,0.346,4.29,0.73c3.823,1.055,6.763,3.262,8.232,7.047
		c2.149,5.532,2.111,11.109,0.063,16.672c-0.124,0.341-0.293,0.666-0.472,0.981c-3.718,6.525-9.881,7.382-17.147,6.453
		c-5.999-0.768-10.119-5.446-10.802-11.564C445.869,155.639,445.853,154.181,445.744,152.29z M468.123,152.743
		c-0.351-1.789-0.51-3.744-1.135-5.538c-1.03-2.968-3.518-4.525-6.403-4.393c-2.912,0.135-5.265,1.875-6.223,4.749
		c-1.142,3.427-1.161,6.9-0.081,10.35c1.041,3.33,3.067,4.883,6.323,4.934c3.509,0.055,5.602-1.43,6.622-4.957
		C467.691,156.284,467.814,154.581,468.123,152.743z"/>
	<path fill-rule="evenodd" fill="#2FA267" d="M142.987,156.078c0,3.474,0.025,6.46-0.013,9.446
		c-0.015,1.157,0.383,2.839-1.134,3.077c-1.837,0.287-3.822,0.109-5.64-0.311c-0.457-0.105-0.722-1.905-0.734-2.929
		c-0.069-5.925-0.037-11.851-0.037-17.774c0-2.176-0.05-4.354,0.025-6.527c0.092-2.667,0.367-2.911,2.919-3.045
		c0.603-0.032,1.21-0.032,1.813,0.002c2.409,0.136,2.715,0.382,2.778,2.768c0.074,2.759,0.017,5.521,0.017,8.611
		c3.767,0.611,7.183,0.398,11.074,0.203c0.118-2.136,0.239-4.021,0.318-5.908c0.051-1.207,0.02-2.417,0.06-3.625
		c0.043-1.307,0.743-1.985,2.052-2.022c0.604-0.018,1.208-0.041,1.813-0.038c3.365,0.016,3.581,0.171,3.595,3.409
		c0.032,7.98,0.029,15.961,0.002,23.939c-0.011,3.359-0.203,3.512-3.452,3.559c-3.788,0.055-4.018-0.173-4.06-4.094
		c-0.021-1.936,0.056-3.874-0.051-5.804c-0.137-2.476-0.626-3.045-3.022-3.119C148.704,155.815,146.089,155.999,142.987,156.078z"/>
	<path fill-rule="evenodd" fill="#2FA267" d="M190.126,168.614c0.348-1.415,0.495-2.233,0.748-3.019
		c2.664-8.286,5.331-16.573,8.028-24.848c1.078-3.308,1.113-3.368,4.585-3.322c8.515,0.114,6.738-1.265,9.405,6.677
		c2.308,6.877,4.512,13.788,6.744,20.688c0.363,1.124,0.634,2.278,1.089,3.936c-2.362,0.048-4.356,0.122-6.349,0.117
		c-1.58-0.004-1.856-1.313-2.26-2.446c-1.216-3.414-1.212-3.42-4.778-3.443c-1.694-0.011-3.394,0.081-5.083-0.016
		c-1.744-0.097-2.819,0.626-3.152,2.296c-0.835,4.185-1.835,3.644-5.37,3.667C192.681,168.907,191.627,168.74,190.126,168.614z
		 M205.426,142.841c-1.763,4.405-3.197,8.756-3.655,13.723c2.634,0,4.817,0,7.428,0
		C208.659,151.561,207.298,147.189,205.426,142.841z"/>
	<path fill-rule="evenodd" fill="#2FA267" d="M533.486,168.603c-2.512,0.04-4.65,0.28-6.719-0.004
		c-0.727-0.1-1.522-1.394-1.859-2.302c-1.44-3.873-1.383-3.895-5.642-3.923c-0.727-0.005-1.452-0.002-2.179,0
		c-3.81,0.009-5.021-0.272-5.831,4.146c-0.321,1.752-1.382,2.398-3.114,2.262c-1.323-0.104-2.661-0.024-3.989-0.088
		c-0.328-0.015-0.646-0.263-1.189-0.501c0.14-0.787,0.189-1.605,0.431-2.361c2.687-8.409,5.385-16.813,8.118-25.208
		c1.072-3.294,1.122-3.361,4.616-3.334c8.567,0.067,6.834-1.033,9.442,6.693c2.32,6.875,4.57,13.773,6.83,20.668
		C532.768,165.769,533.027,166.918,533.486,168.603z M517.974,142.476c-1.566,4.446-3.293,8.771-3.442,13.489
		c2.687,0,4.889,0,7.351,0C521.192,151.077,519.917,146.769,517.974,142.476z"/>
	<path fill-rule="evenodd" fill="#2FA267" d="M309.258,151.372c0.888-0.945,1.505-1.464,1.951-2.101
		c1.948-2.773,4.007-5.489,5.712-8.409c1.358-2.325,3.152-3.132,5.693-2.88c1.155,0.113,2.33,0.018,4.285,0.018
		c-1.143,1.707-1.841,2.782-2.573,3.835c-1.867,2.684-3.702,5.391-5.645,8.019c-1.001,1.355-1.023,2.534-0.174,3.984
		c2.204,3.758,4.293,7.585,6.419,11.39c0.524,0.938,1.015,1.895,1.657,3.099c-2.507,1.026-4.89,0.689-7.179,0.318
		c-0.737-0.119-1.473-1.177-1.923-1.968c-1.438-2.521-2.727-5.128-4.108-7.683c-0.505-0.934-0.927-2.149-2.363-1.755
		c-1.411,0.387-2.269,1.295-2.243,2.888c0.03,1.938,0.036,3.877-0.025,5.813c-0.082,2.634-0.32,2.854-2.967,2.96
		c-0.846,0.034-1.695,0-2.542-0.039c-1.327-0.061-1.956-0.825-1.983-2.106c-0.035-1.694-0.049-3.39-0.051-5.085
		c-0.004-6.54-0.048-13.081,0.042-19.62c0.017-1.236,0.329-3.368,0.927-3.529c1.777-0.482,3.785-0.341,5.651-0.078
		c0.418,0.059,0.853,1.591,0.892,2.464c0.119,2.659,0.023,5.328,0.07,7.99C308.793,149.554,309.025,150.206,309.258,151.372z"/>
	<path fill-rule="evenodd" fill="#2FA267" d="M271.766,139.265c-0.813,2.03-1.429,3.573-2.069,5.177
		c-2.361-0.399-4.459-0.957-6.58-1.066c-3.627-0.185-5.647,1.238-6.941,4.632c-1.152,3.016-1.366,6.1-0.502,9.264
		c1.224,4.486,4.315,6.662,8.922,6.029c1.653-0.227,3.273-0.705,4.867-1.061c2.015,4.229,1.229,6.021-3.038,6.601
		c-2.359,0.32-4.808,0.446-7.169,0.205c-6.367-0.649-9.963-4.427-11.211-10.6c-0.856-4.239-0.792-8.417,0.811-12.49
		c1.666-4.236,4.66-7.095,9.096-8.142C262.522,136.735,267.019,137.096,271.766,139.265z"/>
	<path fill-rule="evenodd" fill="#2FA267" d="M405.548,162.86c3.489,0,6.376-0.038,9.262,0.012c2.663,0.048,4.143,2.722,2.701,4.96
		c-0.315,0.489-1.185,0.873-1.805,0.88c-5.197,0.07-10.397,0.039-15.597,0.037c-1.8,0-2.194-1.152-2.194-2.65
		c0-3.627-0.013-7.254-0.013-10.883c0-4.958-0.055-9.916,0.065-14.872c0.022-0.929,0.668-2.562,1.184-2.627
		c1.716-0.216,3.569-0.089,5.222,0.402c0.488,0.146,0.669,1.928,0.682,2.965c0.066,5.44,0.002,10.882,0.055,16.323
		C405.126,159.069,405.369,160.729,405.548,162.86z"/>
	<path fill-rule="evenodd" fill="#2FA267" d="M366.284,154.158c0.06,3.879-2.678,6.687-6.531,6.695
		c-3.583,0.007-6.487-2.755-6.663-6.34c-0.166-3.361,3.293-7.041,6.693-6.822C363.288,147.916,366.401,150.358,366.284,154.158z"/>
	<path fill-rule="evenodd" fill="#FFFFFF" d="M492.792,18.252c6.213-0.725,12.044-0.819,16.888,2.992
		c3.593,2.828,4.273,7.157,3.503,11.591c-0.765,4.397-2.989,7.814-7.523,8.807c-3.389,0.744-6.927,0.842-10.406,1.125
		c-1.345,0.109-2.44-0.487-2.448-2.033C492.774,33.375,492.792,26.015,492.792,18.252z"/>
	<path fill-rule="evenodd" fill="#FFFFFF" d="M468.123,152.743c-0.309,1.838-0.432,3.541-0.896,5.145
		c-1.021,3.527-3.113,5.012-6.622,4.957c-3.256-0.051-5.282-1.604-6.323-4.934c-1.08-3.449-1.061-6.923,0.081-10.35
		c0.958-2.874,3.311-4.614,6.223-4.749c2.886-0.133,5.373,1.425,6.403,4.393C467.613,148.999,467.772,150.954,468.123,152.743z"/>
	<path fill-rule="evenodd" fill="#FFFFFF" d="M205.426,142.841c1.873,4.349,3.233,8.72,3.773,13.723c-2.61,0-4.793,0-7.428,0
		C202.229,151.597,203.663,147.246,205.426,142.841z"/>
	<path fill-rule="evenodd" fill="#FFFFFF" d="M517.974,142.476c1.943,4.293,3.219,8.602,3.908,13.489c-2.462,0-4.664,0-7.351,0
		C514.681,151.246,516.407,146.922,517.974,142.476z"/>
</g>
</svg>
