<?xml version="1.0" encoding="utf-8"?>
<!-- Generator: Adobe Illustrator 16.0.0, SVG Export Plug-In . SVG Version: 6.00 Build 0)  -->
<!DOCTYPE svg PUBLIC "-//W3C//DTD SVG 1.1 Tiny//EN" "http://www.w3.org/Graphics/SVG/1.1/DTD/svg11-tiny.dtd">
<svg version="1.1" baseProfile="tiny" id="Layer_1" xmlns="http://www.w3.org/2000/svg" xmlns:xlink="http://www.w3.org/1999/xlink"
	 x="0px" y="0px" width="129px" height="264px" viewBox="0 0 129 264" xml:space="preserve">
<polyline fill="none" stroke="#2FA268" stroke-miterlimit="10" points="29.833,0 29.833,46.131 54.833,72.732 54.833,240.523 "/>
<polyline fill="none" stroke="#2FA268" stroke-miterlimit="10" points="55.011,102.282 103.833,52.3 103.833,25.314 
	103.833,112.441 118.833,127.477 118.833,260.523 "/>
<line fill="none" stroke="#2FA268" stroke-miterlimit="10" x1="29.914" y1="29.783" x2="0" y2="0.346"/>
<polyline fill="none" stroke="#2FA268" stroke-miterlimit="10" points="54.808,141.76 33.833,162.173 33.833,194.523 "/>
<polyline fill="none" stroke="#2FA268" stroke-miterlimit="10" points="55.354,157.675 77.833,179.43 77.833,200.523 "/>
<polyline fill="none" stroke="#2FA268" stroke-miterlimit="10" points="118.575,180.656 103.833,196.998 103.833,233.523 "/>
<circle fill="#2FA268" cx="34.012" cy="194.772" r="2.143"/>
<circle fill="#2FA268" cx="55.601" cy="241.034" r="2.143"/>
<circle fill="#2FA268" cx="77.19" cy="200.94" r="2.143"/>
<circle fill="#2FA268" cx="103.405" cy="233.324" r="2.143"/>
<circle fill="#2FA268" cx="118.826" cy="261.081" r="2.143"/>
<circle fill="#2FA268" cx="103.405" cy="25.143" r="2.143"/>
</svg>
